Coordinates
version=1
nRows=17
nColumns=40
inDegrees=yes

Units are S.I. units (second, meters, Newtons, ...)
Angles are in degrees.

endheader
time	pelvis_tilt	pelvis_list	pelvis_rotation	pelvis_tx	pelvis_ty	pelvis_tz	hip_flexion_r	hip_adduction_r	hip_rotation_r	knee_angle_r	knee_angle_r_beta	ankle_angle_r	subtalar_angle_r	mtp_angle_r	hip_flexion_l	hip_adduction_l	hip_rotation_l	knee_angle_l	knee_angle_l_beta	ankle_angle_l	subtalar_angle_l	mtp_angle_l	lumbar_extension	lumbar_bending	lumbar_rotation	arm_flex_r	arm_add_r	arm_rot_r	elbow_flex_r	pro_sup_r	wrist_flex_r	wrist_dev_r	arm_flex_l	arm_add_l	arm_rot_l	elbow_flex_l	pro_sup_l	wrist_flex_l	wrist_dev_l
     45.46692857	     -9.16540734	     -1.45980511	     -1.32403094	      0.94398601	      0.91545403	      0.45734268	     36.72178358	     -4.22721644	    -10.71078728	     22.63713094	     22.63713094	      1.62990461	     -3.97777071	      6.67349528	      2.78388544	     -3.21688106	    -12.11284253	     12.43882943	     12.43882943	     19.77716895	      7.15675622	     -3.93187167	    -11.16271988	      1.60546820	      0.83910125	    -22.29453084	    -14.39126620	     -0.89533350	     35.30759931	     45.83852597	      0.00000000	      0.00000000	     30.66628019	    -21.08945399	     -0.57320698	     99.54301502	     47.61389512	      0.00000000	      0.00000000
     45.47885714	     -9.17365759	     -1.14626570	     -1.17975949	      0.94556351	      0.91278418	      0.45960004	     35.89620460	     -4.12226418	    -11.16584725	     20.13677399	     20.13677399	      1.61312643	     -3.43943851	      7.44438030	      1.90893351	     -2.97788416	    -12.09564657	     12.10739637	     12.10739637	     20.31187123	      7.38810730	     -4.06761450	    -10.85395194	      1.28429012	      0.82109991	    -22.62333099	    -14.17426240	     -0.82932463	     35.28877201	     45.83197957	      0.00000000	      0.00000000	     30.71517691	    -21.09764902	     -0.51006600	     99.68987311	     47.61954184	      0.00000000	      0.00000000
     45.49078571	     -8.90417235	     -1.12470853	     -1.07406434	      0.94759223	      0.91067701	      0.46210612	     34.91945489	     -3.83376552	    -11.82356869	     18.53661875	     18.53661875	      1.76625025	     -2.75974085	      8.27981293	      0.58391505	     -3.07067174	    -12.21377461	     11.57702924	     11.57702924	     20.90039404	      7.92860491	     -3.94079749	    -10.81698078	      1.30254574	      0.98206347	    -22.81009859	    -14.08945451	     -0.75839888	     35.32270568	     45.82337143	      0.00000000	      0.00000000	     30.52177811	    -21.10198764	     -0.14925488	     99.94063213	     47.62533829	      0.00000000	      0.00000000
     45.50271429	     -8.97587965	     -0.93757689	     -0.96780510	      0.94916565	      0.90802885	      0.46454955	     34.90002629	     -3.82982615	    -12.08832492	     18.40251553	     18.40251553	      1.80411574	     -2.89421141	      8.31093966	     -0.01618162	     -3.03335548	    -12.15212497	     11.64104985	     11.64104985	     21.40114697	      7.89495201	     -4.11691339	    -10.42616899	      1.20380451	      1.11898556	    -22.74367414	    -14.05208612	     -0.75315102	     35.34806699	     45.82246690	      0.00000000	      0.00000000	     30.41802258	    -21.11220931	     -0.13954076	     99.94502297	     47.62494461	      0.00000000	      0.00000000
     45.51464286	     -8.78615341	     -1.05971082	     -0.77522007	      0.95093435	      0.90630351	      0.46716471	     34.39442238	     -3.57895221	    -12.45149316	     18.38738840	     18.38738840	      1.83427795	     -3.05262615	      8.14865053	     -0.84064425	     -3.37666677	    -11.89396739	     11.82682743	     11.82682743	     21.97549592	      7.89061833	     -4.19336309	    -10.42974871	      1.42191302	      1.26434336	    -22.51945947	    -13.84895136	     -0.71168690	     35.32955700	     45.82215426	      0.00000000	      0.00000000	     29.55435564	    -20.86895760	      0.17560089	     99.78337876	     47.60224464	      0.00000000	      0.00000000
     45.52657143	     -8.61332508	     -1.21052219	     -0.57226769	      0.95259677	      0.90478462	      0.46989045	     33.98438926	     -3.31036771	    -12.53816215	     18.74192155	     18.74192155	      0.42600766	     -4.16685257	      3.60709072	     -1.24639592	     -3.89494955	    -11.87750363	     12.83792758	     12.83792758	     23.22398942	      8.16206398	     -2.71887059	    -10.39087543	      1.69483370	      1.15706303	    -21.17830635	    -13.67562221	     -0.71776720	     33.38643989	     45.90953482	      0.00000000	      0.00000000	     28.64067329	    -21.14835167	      0.50640992	     99.80715841	     47.66537420	      0.00000000	      0.00000000
     45.53850000	     -8.32570754	     -1.41552735	     -0.40541476	      0.95426093	      0.90398662	      0.47259111	     33.68259443	     -3.10968169	    -12.68827527	     19.91860693	     19.91860693	      0.71577596	     -4.63478380	      3.15728563	     -1.88643315	     -4.38947584	    -11.55523028	     13.51439436	     13.51439436	     23.48787322	      7.81337442	     -2.88117916	    -10.55223176	      2.11861444	      1.49162408	    -20.48532019	    -13.56840300	     -0.71220411	     33.54393466	     45.90810595	      0.00000000	      0.00000000	     27.64998020	    -20.77076976	      0.75971106	     99.45775031	     47.64070155	      0.00000000	      0.00000000
     45.55042857	     -8.06858175	     -1.53679919	     -0.13786891	      0.95557247	      0.90312578	      0.47528009	     33.79391234	     -3.10607765	    -12.63212988	     21.95892817	     21.95892817	      1.20418815	     -5.68073616	      2.15865256	     -1.83973214	     -4.92417111	    -10.94526836	     15.35679519	     15.35679519	     23.75701203	      6.89269946	     -3.31465876	    -10.70423655	      2.38135331	      1.52865831	    -19.70404394	    -13.72480925	     -0.78039120	     33.38904145	     45.92523174	      0.00000000	      0.00000000	     26.77767559	    -20.62135641	      0.83347486	     98.79473035	     47.62646462	      0.00000000	      0.00000000
     45.56235714	     -8.10790304	     -1.64370161	      0.19859073	      0.95637803	      0.90241027	      0.47798001	     34.03619153	     -3.06384647	    -12.38890076	     23.64884295	     23.64884295	      1.43543590	     -6.87265697	      1.02772760	     -1.02109294	     -5.49874591	    -10.08916698	     17.90037575	     17.90037575	     23.71250540	      5.55609086	     -4.04244713	    -10.56927449	      2.64236333	      1.46246659	    -18.23420062	    -13.53161807	     -0.81972427	     32.86627657	     45.96122831	      0.00000000	      0.00000000	     25.60870178	    -20.39351609	      0.89522749	     97.76156765	     47.61124012	      0.00000000	      0.00000000
     45.57428571	     -7.92190496	     -1.80350619	      0.53494145	      0.95730070	      0.90249692	      0.48073391	     33.82344714	     -2.94074774	    -12.37181338	     25.02532780	     25.02532780	      1.82378133	     -7.90098503	      0.10286813	     -0.29739226	     -6.11802093	     -9.13514084	     20.67285722	     20.67285722	     23.27915319	      4.03695439	     -5.05402916	    -10.67284419	      2.92321730	      1.45588538	    -16.49679835	    -13.48188967	     -0.89128362	     32.02155140	     46.01549221	      0.00000000	      0.00000000	     24.23817039	    -20.08834827	      0.96789436	     96.55108549	     47.59408610	      0.00000000	      0.00000000
     45.58621429	     -7.62552161	     -1.95764074	      0.88234286	      0.95813505	      0.90320953	      0.48342935	     33.34634510	     -2.79246834	    -12.30240228	     26.13849513	     26.13849513	      2.28718064	     -8.70120327	     -0.85099312	      0.43181948	     -6.64524164	     -7.91766789	     23.46652677	     23.46652677	     21.63582869	      1.67423155	     -7.82587490	    -10.91120702	      3.25414254	      1.18061196	    -13.67174450	    -13.25843220	     -1.15112549	     28.93297541	     46.18620961	      0.00000000	      0.00000000	     22.74521353	    -19.73963086	      0.55533775	     95.07475316	     47.64952353	      0.00000000	      0.00000000
     45.59814286	     -7.33652160	     -2.14718605	      1.26644355	      0.95869848	      0.90417045	      0.48611111	     32.73579843	     -2.63959215	    -12.51989046	     26.97992536	     26.97992536	      3.05506762	     -9.00646615	     -1.14979965	      1.70491763	     -7.36267489	     -7.07187733	     27.25812131	     27.25812131	     20.60018149	      0.08334710	     -8.63630941	    -11.25956270	      3.59107894	      1.19223436	    -12.01750204	    -13.32205463	     -1.24810600	     29.22206562	     46.19530305	      0.00000000	      0.00000000	     21.36372965	    -19.41775343	      0.89035907	     93.83789067	     47.60760904	      0.00000000	      0.00000000
     45.61007143	     -7.17317126	     -2.22690085	      1.63733352	      0.95899098	      0.90536134	      0.48865430	     32.16065362	     -2.55584529	    -12.66782702	     27.56299486	     27.56299486	      3.95899290	     -9.16955112	     -0.80421262	      3.24985774	     -7.74176733	     -5.71141595	     31.03494697	     31.03494697	     18.35171560	     -2.92999822	    -10.71065029	    -11.36715481	      3.82008618	      1.03357136	     -9.68130670	    -13.28520321	     -1.31127839	     28.41336057	     46.25306857	      0.00000000	      0.00000000	     19.97634648	    -18.86308415	      0.78595899	     91.23420558	     47.59651258	      0.00000000	      0.00000000
     45.62200000	     -6.99510453	     -2.46861689	      1.99575555	      0.95912475	      0.90667219	      0.49134381	     31.36224612	     -2.28253705	    -13.08830686	     27.71220445	     27.71220445	      4.71692935	     -9.06241744	     -0.91814040	      5.16703401	     -8.46398629	     -4.87203447	     35.46826261	     35.46826261	     16.60863854	     -4.82694258	    -11.31355586	    -11.58853066	      4.17084036	      1.14345812	     -7.75905170	    -13.38913908	     -1.34984214	     28.75341425	     46.25798485	      0.00000000	      0.00000000	     18.45572979	    -18.40840836	      1.17521745	     89.61794068	     47.54405808	      0.00000000	      0.00000000
     45.63392857	     -6.86081423	     -2.56889567	      2.32329904	      0.95906480	      0.90814951	      0.49383587	     30.56408015	     -2.14138674	    -13.48468124	     27.72608233	     27.72608233	      5.50996986	     -8.76723803	     -0.89351344	      7.22702114	     -8.81951553	     -3.75249373	     39.85292814	     39.85292814	     14.40937652	     -7.59104906	    -11.51558507	    -11.73320502	      4.40090201	      1.08665331	     -5.47615534	    -13.50729150	     -1.26534194	     28.81681144	     46.26772255	      0.00000000	      0.00000000	     17.06769131	    -17.84289427	      1.26185205	     86.78709861	     47.49776726	      0.00000000	      0.00000000
     45.64585714	     -6.74234636	     -2.81874759	      2.60971500	      0.95879231	      0.90958595	      0.49642632	     29.65815774	     -1.80270402	    -13.99475189	     27.42943057	     27.42943057	      6.15187487	     -8.36726141	     -0.98369478	      9.52772670	     -9.41156198	     -2.92314459	     44.45046847	     44.45046847	     12.43200502	     -9.76424746	    -11.14053160	    -11.87499280	      4.72889480	      1.26333754	     -3.36100104	    -13.69593772	     -1.21021126	     29.24858463	     46.26313671	      0.00000000	      0.00000000	     15.58993373	    -17.25629480	      1.54752426	     84.61147833	     47.44084705	      0.00000000	      0.00000000
     45.65778571	     -6.61526828	     -2.87289722	      2.83100472	      0.95839075	      0.91118484	      0.49879707	     28.76728789	     -1.69431022	    -14.53358219	     27.16994140	     27.16994140	      6.83730416	     -7.59987860	     -1.08563067	     11.84642957	     -9.59142768	     -2.00718402	     48.89673055	     48.89673055	     10.81958561	    -12.24589944	     -9.05416512	    -11.96771053	      4.84242422	      1.40070965	     -0.88568864	    -13.92148978	     -0.79540969	     29.28281763	     46.25006303	      0.00000000	      0.00000000	     14.53977098	    -16.32698147	      1.33581803	     80.62277301	     47.40085649	      0.00000000	      0.00000000
